<?xml version="1.0" standalone="no"?>
<!DOCTYPE svg PUBLIC "-//W3C//DTD SVG 20010904//EN"
 "http://www.w3.org/TR/2001/REC-SVG-20010904/DTD/svg10.dtd">
<svg version="1.0" xmlns="http://www.w3.org/2000/svg"
 width="512.000000pt" height="512.000000pt" viewBox="0 0 512.000000 512.000000"
 preserveAspectRatio="xMidYMid meet">

<g transform="translate(0.000000,512.000000) scale(0.100000,-0.100000)"
fill="#000000" stroke="none">
<path d="M2361 5110 c-442 -37 -865 -184 -1222 -426 -164 -110 -242 -175 -394
-328 -401 -404 -644 -897 -721 -1466 -23 -169 -23 -491 0 -660 99 -727 488
-1362 1090 -1778 752 -521 1743 -593 2572 -187 675 331 1173 948 1354 1675
221 892 -48 1828 -707 2461 -395 378 -902 624 -1433 693 -148 19 -406 27 -539
16z m-579 -1299 c75 -36 134 -94 170 -169 29 -59 33 -76 33 -152 0 -71 -4 -94
-26 -141 -36 -76 -86 -129 -161 -170 -59 -32 -69 -34 -158 -34 -83 0 -102 3
-151 28 -63 31 -135 102 -171 168 -20 38 -23 58 -23 149 0 91 3 111 24 150 46
87 111 146 199 181 66 27 198 22 264 -10z m1610 -810 c107 -28 173 -64 245
-136 76 -76 132 -186 165 -320 20 -86 22 -117 25 -654 l4 -563 -22 -24 c-22
-24 -23 -24 -254 -24 l-232 0 -24 26 -24 26 -1 466 c-1 487 -5 534 -45 615
-44 88 -106 127 -210 135 -143 10 -239 -59 -295 -213 -17 -45 -19 -97 -24
-527 l-5 -476 -24 -26 -24 -26 -224 0 -224 0 -24 25 -25 24 0 810 0 809 31 26
31 26 213 0 c211 0 214 0 242 -24 25 -21 28 -32 31 -98 l4 -74 62 62 c110 109
231 153 432 153 88 1 141 -4 196 -18z m-1506 -34 l24 -28 0 -803 0 -803 -26
-27 -27 -26 -219 0 c-217 0 -219 0 -243 24 -13 13 -26 39 -30 57 -3 19 -5 380
-3 804 3 826 1 798 53 824 12 6 103 9 233 8 l214 -2 24 -28z"/>
</g>
</svg>
