<?xml version="1.0" standalone="no"?>
<!DOCTYPE svg PUBLIC "-//W3C//DTD SVG 20010904//EN"
 "http://www.w3.org/TR/2001/REC-SVG-20010904/DTD/svg10.dtd">
<svg version="1.0" xmlns="http://www.w3.org/2000/svg"
 width="512.000000pt" height="512.000000pt" viewBox="0 0 512.000000 512.000000"
 preserveAspectRatio="xMidYMid meet">

<g transform="translate(0.000000,512.000000) scale(0.100000,-0.100000)"
fill="#000000" stroke="none">
<path d="M1855 4339 c-734 -17 -1198 -57 -1352 -114 -222 -84 -365 -266 -417
-535 -116 -591 -108 -1833 14 -2335 54 -218 211 -394 417 -466 238 -82 1107
-126 2303 -116 948 9 1457 36 1715 93 188 42 354 174 436 349 77 162 118 472
141 1053 21 538 -18 1193 -89 1482 -38 155 -125 292 -240 379 -91 68 -188 107
-327 131 -408 70 -1549 104 -2601 79z m854 -1391 c355 -204 652 -376 658 -382
10 -9 -137 -98 -620 -376 -347 -200 -647 -373 -664 -383 l-33 -19 0 766 c0
421 3 766 6 766 3 0 297 -167 653 -372z"/>
</g>
</svg>
